# xmcd
#
# Track frame offsets: 
#        150
#        21290
#        42915
#        64925
#        81607
#        97912
#        118727
#        140577
#        161355
#        179900
#
# Disc length: 2732 seconds
#
# Revision: 0
# Processed by: cddbd v1.5.2PL0 Copyright (c) Steve Scherf et al.
# Submitted via: ExactAudioCopyFreeDBPlugin 1.0
#
DISCID=8e0aaa0a
DTITLE=桐ヶ谷仁 - JIN
DYEAR=1983
DGENRE=JPop
TTITLE0=海辺の町
TTITLE1=静かだね
TTITLE2=テールライト
TTITLE3=君をつれて
TTITLE4=LIGHT and SHADE
TTITLE5=暮れ色の媚薬
TTITLE6=あいたいよ
TTITLE7=波
TTITLE8=DEPARTURE
TTITLE9=誰よりも
EXTD=
EXTT0=
EXTT1=
EXTT2=
EXTT3=
EXTT4=
EXTT5=
EXTT6=
EXTT7=
EXTT8=
EXTT9=
PLAYORDER=
